<svg width="21" height="23" viewBox="0 0 21 23" fill="none" xmlns="http://www.w3.org/2000/svg">
<g clip-path="url(#clip0_111_336)">
<path d="M3.7145 21.8991C2.84117 21.8991 2.09411 21.5931 1.4733 20.9707C0.863025 20.3589 0.547363 19.6099 0.547363 18.7238V15.559H3.70398V0.800781H19.4871V18.7343C19.4871 19.6099 19.1819 20.3589 18.5611 20.9813C17.9508 21.5931 17.2038 21.9096 16.3199 21.9096H3.7145V21.8991Z" stroke="#F8F8F8" stroke-width="0.810483" stroke-miterlimit="10"/>
<path d="M15.8254 15.9749C16.0492 15.9749 16.2307 15.7934 16.2307 15.5696C16.2307 15.3458 16.0492 15.1644 15.8254 15.1644V15.9749ZM3.71452 15.5696V15.9749H15.8254V15.5696V15.1644H3.71452V15.5696Z" fill="#F8F8F8"/>
<path d="M5.78737 8.91309H17.5405" stroke="#F8F8F8" stroke-width="0.810483" stroke-miterlimit="10" stroke-linecap="round"/>
<path d="M5.78737 5.54791H17.5405" stroke="#F8F8F8" stroke-width="0.810483" stroke-miterlimit="10" stroke-linecap="round"/>
</g>
<defs>
<clipPath id="clip0_111_336">
<rect width="19.9919" height="22.1532" fill="white" transform="translate(0.0317841 0.273315)"/>
</clipPath>
</defs>
</svg>
