<svg width="24" height="19" viewBox="0 0 24 19" fill="none" xmlns="http://www.w3.org/2000/svg">
<g clip-path="url(#clip0_91_114)">
<path d="M23.1376 0.841689C22.566 0.283825 21.8674 0 21.0652 0H2.93482C2.12925 0 1.43398 0.283825 0.862396 0.841689C0.290808 1.39955 0 2.08139 0 2.86435V16.1356C0 16.9186 0.290808 17.6004 0.862396 18.1583C1.43398 18.7162 2.13259 19 2.93482 19H21.0652C21.8708 19 22.566 18.7162 23.1376 18.1583C23.7092 17.6004 24 16.9186 24 16.1356V2.86435C24 2.08139 23.7092 1.39955 23.1376 0.841689ZM21.0652 1.30494C21.1521 1.30494 21.2357 1.31473 21.3159 1.32778L13.8552 7.66981C12.8591 8.51803 11.3816 8.55392 10.3421 7.75464L2.19276 1.48764C2.41337 1.37019 2.65738 1.30494 2.93482 1.30494H21.0652ZM22.663 16.1356C22.663 16.5728 22.5125 16.9219 22.1916 17.2351C21.8708 17.5482 21.5131 17.6951 21.0652 17.6951H2.93482C2.48691 17.6951 2.12591 17.5482 1.80501 17.2351C1.48412 16.9219 1.3337 16.5728 1.3337 16.1356V2.86435C1.3337 2.74365 1.34708 2.62946 1.37047 2.51854L9.50975 8.77575C10.2518 9.34667 11.1476 9.63049 12.0435 9.63049C13.0061 9.63049 13.9655 9.301 14.7309 8.64852L22.4457 2.08791C22.5861 2.31628 22.6563 2.56748 22.6563 2.85783V16.1291L22.663 16.1356Z" fill="#6E3C3F"/>
</g>
<defs>
<clipPath id="clip0_91_114">
<rect width="24" height="19" fill="white"/>
</clipPath>
</defs>
</svg>
