<svg width="29" height="29" viewBox="0 0 29 29" fill="none" xmlns="http://www.w3.org/2000/svg">
<g clip-path="url(#clip0_91_133)">
<path d="M24.7533 24.753C30.4159 19.0904 30.4159 9.90955 24.7533 4.24695C19.0907 -1.41565 9.90979 -1.41565 4.24719 4.24695C-1.41541 9.90955 -1.41541 19.0904 4.24719 24.753C9.90979 30.4157 19.0907 30.4157 24.7533 24.753Z" fill="#1976F5"/>
<path d="M16.0644 25.2475H12.234V15.8288H9.09888V12.1704H12.1372C12.3935 9.69205 11.674 7.00405 14.1505 5.333C15.4005 4.48897 17.2803 4.27751 19.8267 4.69057V7.94306C19.1359 7.94306 18.4818 7.92066 17.8295 7.94754C16.6038 7.99861 16.1334 8.43586 16.0599 9.64098C16.0124 10.416 16.051 11.1973 16.051 12.088H19.7084C19.5525 13.3486 19.411 14.4875 19.2533 15.7625H16.0644V25.2475Z" fill="white"/>
</g>
<defs>
<clipPath id="clip0_91_133">
<rect width="29" height="29" fill="white"/>
</clipPath>
</defs>
</svg>
