<svg width="29" height="29" viewBox="0 0 29 29" fill="none" xmlns="http://www.w3.org/2000/svg">
<g clip-path="url(#clip0_91_142)">
<path d="M1.4751 7.79584C3.88445 3.77416 7.95303 0.59206 12.7159 0.127122C16.9373 -0.483993 21.082 1.17615 24.352 3.76003C23.0052 5.1008 21.7554 6.55273 20.2693 7.74732C18.27 6.86535 16.2842 5.60074 13.9927 5.88573C10.4379 5.90661 7.57061 8.54638 6.0986 11.6099C4.56398 10.3318 3.01586 9.06045 1.47449 7.79646L1.4751 7.79584Z" fill="#ED412D"/>
<path d="M1.47507 7.79584C3.01644 9.06045 4.56456 10.3312 6.09918 11.6093C5.8426 13.5059 5.82172 15.4228 6.06419 17.3194C4.62718 18.7855 3.17604 20.2368 1.71815 21.6887C-0.454866 17.355 -0.600962 12.2002 1.47507 7.79584Z" fill="#FDBD02"/>
<path d="M14.4027 11.7487C19.2208 11.7002 24.0463 11.804 28.8717 11.7346C29.4825 16.7433 27.9067 21.9184 24.1782 25.3917C22.6786 24.127 21.1722 22.8698 19.6517 21.6267C20.8113 20.2792 21.8874 18.869 22.8591 17.3894C20.0403 17.223 17.2215 17.2574 14.4027 17.2641V11.7481V11.7487Z" fill="#4887F6"/>
<path d="M1.71814 21.6893C3.17603 20.2374 4.62716 18.7855 6.06418 17.32C7.02915 19.0428 8.09172 20.8209 9.84118 21.8564C12.7852 23.8224 16.7144 23.3636 19.6517 21.6273C21.1722 22.871 22.6786 24.1283 24.1782 25.3922C19.95 28.9214 13.7778 30.1368 8.69575 27.7956C5.7106 26.6562 3.50259 24.2529 1.71814 21.6893Z" fill="#31AA53"/>
</g>
<defs>
<clipPath id="clip0_91_142">
<rect width="29" height="29" fill="white"/>
</clipPath>
</defs>
</svg>
