<svg width="23" height="24" viewBox="0 0 23 24" fill="none" xmlns="http://www.w3.org/2000/svg">
<g clip-path="url(#clip0_111_328)">
<path d="M11.4068 23.1285C9.88771 23.1285 8.43192 22.8331 7.08163 22.2529C5.74189 21.6727 4.56039 20.8815 3.56877 19.8899C2.57715 18.8983 1.78597 17.7168 1.20576 16.377C0.625561 15.0373 0.330185 13.5815 0.330185 12.0519C0.330185 10.5223 0.625561 9.07704 1.20576 7.72675C1.78597 6.38701 2.57715 5.2055 3.56877 4.21388C4.56039 3.22226 5.74189 2.42053 7.08163 1.85088C9.77167 0.69047 13.0419 0.69047 15.7319 1.84033C17.0717 2.42053 18.2532 3.21171 19.2448 4.20333C20.2364 5.19495 21.0381 6.37646 21.6078 7.7162C22.188 9.05594 22.4834 10.5117 22.4834 12.0413C22.4834 13.571 22.188 15.0162 21.6078 16.3665C21.0276 17.7062 20.2364 18.8877 19.2448 19.8794C18.2532 20.871 17.0717 21.6727 15.7319 22.2424C14.3816 22.8226 12.9364 23.1179 11.4068 23.1179V23.1285ZM11.4068 2.03021C10.0248 2.03021 8.71675 2.29394 7.5036 2.8214C6.29045 3.34885 5.21444 4.06619 4.31776 4.96287C3.42108 5.85955 2.70374 6.93556 2.17628 8.14871C1.64883 9.36186 1.3851 10.67 1.3851 12.0519C1.3851 13.4338 1.64883 14.7419 2.17628 15.9551C2.70374 17.1682 3.42108 18.2442 4.31776 19.1409C5.21444 20.0376 6.29045 20.7655 7.5036 21.2824C9.9299 22.3268 12.8942 22.3268 15.31 21.2824C16.5231 20.7549 17.5991 20.0376 18.4958 19.1409C19.3925 18.2442 20.1098 17.1682 20.6373 15.9551C21.1647 14.7419 21.4285 13.4338 21.4285 12.0519C21.4285 10.67 21.1647 9.36186 20.6373 8.14871C20.1098 6.93556 19.3925 5.85955 18.4958 4.96287C17.5991 4.06619 16.5231 3.34885 15.31 2.8214C14.0968 2.29394 12.7887 2.03021 11.4068 2.03021Z" fill="#F8F8F8"/>
<path d="M11.354 18.3811C11.7233 18.3811 12.0397 18.2545 12.2929 18.0014C12.5461 17.7482 12.6727 17.4317 12.6727 17.0625C12.6727 16.6933 12.5461 16.3768 12.2929 16.1236C12.0397 15.8704 11.7233 15.7438 11.354 15.7438C10.9848 15.7438 10.6683 15.8704 10.4152 16.1236C10.162 16.3768 10.0354 16.6933 10.0354 17.0625C10.0354 17.4317 10.162 17.7482 10.4152 18.0014C10.6683 18.2545 10.9848 18.3811 11.354 18.3811Z" fill="#F8F8F8"/>
<path d="M11.4279 14.2458C11.9342 14.2458 12.3773 13.8872 12.4511 13.3914C12.4828 13.1593 12.5355 12.9589 12.6094 12.7795C12.7465 12.4208 13.1474 11.9356 13.8014 11.3237C14.2867 10.8385 14.6665 10.3743 14.9513 9.9418C15.2361 9.50928 15.3733 8.97128 15.3733 8.35943C15.3733 7.31506 14.9935 6.51333 14.2234 5.95422C13.4533 5.39512 12.5566 5.11029 11.5017 5.11029C10.4468 5.11029 9.57123 5.39512 8.90663 5.95422C8.56906 6.23905 8.29478 6.54497 8.0627 6.88255C7.70403 7.41 7.94666 7.96911 8.15764 8.12734C8.36863 8.28558 9.11762 8.6548 10.0037 7.61044C10.3308 7.22012 10.8266 7.01968 11.5017 7.01968C12.103 7.01968 12.5461 7.17792 12.8415 7.50495C13.1368 7.83197 13.2845 8.19064 13.2845 8.58096C13.2845 8.97128 13.1685 9.30885 12.947 9.63587C12.7254 9.96289 12.4406 10.2688 12.103 10.5431C11.2802 11.271 10.7738 11.8195 10.5945 12.1993C10.4996 12.3997 10.4257 12.674 10.373 13.0432C10.2886 13.6762 10.7738 14.2353 11.4173 14.2353L11.4279 14.2458Z" fill="#F8F8F8"/>
</g>
<defs>
<clipPath id="clip0_111_328">
<rect width="22.1532" height="22.1532" fill="white" transform="translate(0.330185 0.975037)"/>
</clipPath>
</defs>
</svg>
