<svg width="24" height="25" viewBox="0 0 24 25" fill="none" xmlns="http://www.w3.org/2000/svg">
<path d="M20.83 8.8141L14.28 3.5741C13 2.5541 11 2.5441 9.73002 3.5641L3.18002 8.8141C2.24002 9.5641 1.67002 11.0641 1.87002 12.2441L3.13002 19.7841C3.42002 21.4741 4.99002 22.8041 6.70002 22.8041H17.3C18.99 22.8041 20.59 21.4441 20.88 19.7741L22.14 12.2341C22.32 11.0641 21.75 9.5641 20.83 8.8141ZM12.75 18.8041C12.75 19.2141 12.41 19.5541 12 19.5541C11.59 19.5541 11.25 19.2141 11.25 18.8041V15.8041C11.25 15.3941 11.59 15.0541 12 15.0541C12.41 15.0541 12.75 15.3941 12.75 15.8041V18.8041Z" fill="#333333"/>
</svg>
