<svg width="236" height="290" viewBox="0 0 236 290" fill="none" xmlns="http://www.w3.org/2000/svg">
<g clip-path="url(#clip0_246_96)">
<path d="M109.957 71.409C109.206 70.6608 107.978 70.6608 107.227 71.409C106.475 72.1572 106.475 73.379 107.227 74.1272C107.978 74.8755 109.206 74.8755 109.957 74.1272C110.709 73.379 110.709 72.1572 109.957 71.409Z" fill="#6E3C3F"/>
<path d="M127.365 55.1562C126.614 55.9044 126.614 57.1262 127.365 57.8745C128.117 58.6227 129.344 58.6227 130.095 57.8745C130.847 57.1262 130.847 55.9044 130.095 55.1562C129.344 54.408 128.117 54.408 127.365 55.1562Z" fill="#6E3C3F"/>
<path d="M116.454 54.5216C115.703 53.7734 114.476 53.7734 113.724 54.5216C112.973 55.2699 112.973 56.4917 113.724 57.2399C114.476 57.9881 115.703 57.9881 116.454 57.2399C117.206 56.4917 117.206 55.2699 116.454 54.5216Z" fill="#6E3C3F"/>
<path d="M110.785 89.0351C110.033 88.2869 108.806 88.2869 108.054 89.0351C107.303 89.7833 107.303 91.0051 108.054 91.7534C108.806 92.5016 110.033 92.5016 110.785 91.7534C111.536 91.0051 111.536 89.7833 110.785 89.0351Z" fill="#6E3C3F"/>
<path d="M93.814 84.1384C93.0625 83.3902 91.8354 83.3902 91.0839 84.1384C90.3324 84.8867 90.3324 86.1085 91.0839 86.8567C91.8354 87.6049 93.0625 87.6049 93.814 86.8567C94.5655 86.1085 94.5655 84.8867 93.814 84.1384Z" fill="#6E3C3F"/>
<path d="M112.649 139.385C111.898 140.133 111.898 141.355 112.649 142.103C113.401 142.851 114.628 142.851 115.379 142.103C116.131 141.355 116.131 140.133 115.379 139.385C114.628 138.636 113.401 138.636 112.649 139.385Z" fill="#6E3C3F"/>
<path d="M105.312 255.209C104.561 255.957 104.561 257.179 105.312 257.927C106.064 258.675 107.291 258.675 108.042 257.927C108.794 257.179 108.794 255.957 108.042 255.209C107.291 254.46 106.064 254.46 105.312 255.209Z" fill="#6E3C3F"/>
<path d="M113.638 104.757C112.887 105.506 112.887 106.728 113.638 107.476C114.39 108.224 115.617 108.224 116.369 107.476C117.12 106.728 117.12 105.506 116.369 104.757C115.617 104.009 114.39 104.009 113.638 104.757Z" fill="#6E3C3F"/>
<path d="M127.936 82.8124C127.184 82.0642 125.957 82.0642 125.206 82.8124C124.454 83.5607 124.454 84.7825 125.206 85.5307C125.957 86.279 127.184 86.279 127.936 85.5307C128.687 84.7825 128.687 83.5607 127.936 82.8124Z" fill="#6E3C3F"/>
<path d="M93.1907 50.6848C92.2549 51.6224 91.8741 52.7604 92.3453 53.226C92.8099 53.6916 93.9522 53.3165 94.8815 52.3789C95.8173 51.4413 96.1981 50.3033 95.727 49.8377C95.2623 49.3721 94.12 49.7472 93.1907 50.6848Z" fill="#6E3C3F"/>
<path d="M100.378 45.107C99.6116 44.871 98.417 45.5022 97.7002 46.5233C96.9835 47.5443 97.0329 48.5598 97.7909 48.7959C98.5571 49.0319 99.7517 48.4006 100.468 47.3796C101.185 46.3586 101.136 45.3431 100.378 45.107Z" fill="#6E3C3F"/>
<path d="M84.7899 27.9612C86.0951 26.708 86.1664 24.6877 84.9539 23.3455L79.8899 17.7505C75.6247 22.2293 68.5636 23.4208 62.8648 20.2638C60.6965 19.0585 58.3357 18.497 55.9962 18.497C51.9949 18.497 48.0792 20.1748 45.4331 23.2291L66.6521 40.9111C67.3154 41.459 68.1428 41.7397 68.963 41.7397C69.8688 41.7397 70.7818 41.4042 71.4594 40.7468L84.7828 27.9543L84.7899 27.9612Z" fill="#6E3C3F"/>
<path d="M101.858 31.2113C100.054 29.4144 97.0903 29.4559 95.2524 31.2943L95.1004 31.4463L92.2467 28.592C93.525 26.5255 93.3661 23.7886 91.7147 21.888L57.6511 -17.3751C56.6216 -18.5639 55.1361 -19.2757 53.5676 -19.331C51.9992 -19.3863 50.4653 -18.785 49.3598 -17.6723L25.6396 6.0542C24.5341 7.16001 23.933 8.69431 23.9813 10.2632C24.0366 11.832 24.7483 13.318 25.9298 14.3478L65.1824 48.4274C66.2465 49.3535 67.5731 49.8097 68.8997 49.8097C69.943 49.8097 70.9795 49.5194 71.8915 48.9596L74.7451 51.8139L74.5931 51.966C72.7552 53.8044 72.7206 56.7694 74.4964 58.5594L74.5378 58.6009C77.3154 61.3792 81.0603 62.7338 85.0195 62.7338C90.0426 62.7338 95.4113 60.5567 99.6261 56.3409C107.164 48.8006 108.18 37.5421 101.858 31.2183V31.2113ZM67.0272 46.3126L27.7746 12.2329C27.1666 11.7076 26.8142 10.9681 26.7866 10.1664C26.7589 9.36471 27.0561 8.60447 27.6226 8.03774L51.3359 -15.6888C51.8817 -16.2348 52.5934 -16.532 53.3603 -16.532C53.3949 -16.532 53.4294 -16.532 53.464 -16.532C54.2655 -16.5043 55.0048 -16.1518 55.5299 -15.5436L89.6004 23.7264C90.5816 24.8599 90.5194 26.5739 89.4622 27.6382L80.1967 36.9063L70.9311 46.1743C69.8739 47.2318 68.1535 47.294 67.0203 46.3126H67.0272ZM73.9851 47.0866L90.3743 30.693L93.1173 33.4368L76.7281 49.8304L73.9851 47.0866ZM76.5001 56.5897C75.8023 55.8916 75.8368 54.6752 76.5761 53.9426L76.7281 53.7906L97.0834 33.4299L97.2354 33.2778C97.9678 32.5383 99.1838 32.5038 99.9024 33.2225C105.105 38.4268 104.09 47.9091 97.643 54.3573C91.1965 60.8056 81.7167 61.8146 76.4932 56.5897H76.5001Z" fill="#6E3C3F"/>
<path d="M88.56 55.4992C87.5395 55.9765 86.9085 56.772 87.1444 57.2822C87.3803 57.7924 88.4009 57.8199 89.416 57.3426C90.4366 56.8653 91.0676 56.0697 90.8316 55.5595C90.5957 55.0493 89.5751 55.0218 88.56 55.4992Z" fill="#6E3C3F"/>
<path d="M134.776 199.073C135.432 198.419 136.488 198.419 137.135 199.073C137.791 199.726 137.791 200.778 137.135 201.422C136.478 202.066 135.422 202.075 134.776 201.422C134.119 200.768 134.119 199.717 134.776 199.073Z" fill="#6E3C3F"/>
<path d="M95.1446 250.087C95.801 249.434 96.8569 249.434 97.5038 250.087C98.1601 250.741 98.1601 251.792 97.5038 252.436C96.8474 253.08 95.7915 253.09 95.1446 252.436C94.4883 251.783 94.4883 250.731 95.1446 250.087Z" fill="#6E3C3F"/>
<path d="M117.861 197.058C118.518 196.405 119.574 196.405 120.22 197.058C120.877 197.712 120.877 198.763 120.22 199.407C119.564 200.051 118.508 200.061 117.861 199.407C117.205 198.754 117.205 197.703 117.861 197.058Z" fill="#6E3C3F"/>
<path d="M133.824 218.015C134.481 217.362 135.537 217.362 136.183 218.015C136.84 218.669 136.84 219.72 136.183 220.364C135.527 221.008 134.471 221.018 133.824 220.364C133.168 219.711 133.168 218.66 133.824 218.015Z" fill="#6E3C3F"/>
<path d="M126.481 125.954C127.137 126.608 127.137 127.659 126.481 128.303C125.824 128.957 124.768 128.957 124.121 128.303C123.465 127.65 123.465 126.598 124.121 125.954C124.768 125.301 125.834 125.301 126.481 125.954Z" fill="#6E3C3F"/>
<path d="M142.576 153.8C143.232 153.146 144.288 153.146 144.935 153.8C145.592 154.453 145.592 155.505 144.935 156.149C144.279 156.802 143.223 156.802 142.576 156.149C141.92 155.495 141.92 154.444 142.576 153.8Z" fill="#6E3C3F"/>
<path d="M95.1446 152.868C95.801 152.214 96.8569 152.214 97.5038 152.868C98.1601 153.521 98.1601 154.573 97.5038 155.217C96.8474 155.861 95.7915 155.861 95.1446 155.217C94.4883 154.563 94.4883 153.512 95.1446 152.868Z" fill="#6E3C3F"/>
<path d="M96.4067 281.652C97.0631 280.998 98.119 280.998 98.7659 281.652C99.4222 282.306 99.4222 283.357 98.7659 284.001C98.1095 284.645 97.0536 284.645 96.4067 284.001C95.7503 283.347 95.7503 282.296 96.4067 281.652Z" fill="#6E3C3F"/>
<path d="M122.904 216.538C123.56 215.884 124.616 215.884 125.263 216.538C125.919 217.191 125.919 218.243 125.263 218.887C124.607 219.531 123.551 219.531 122.904 218.887C122.247 218.233 122.247 217.182 122.904 216.538Z" fill="#6E3C3F"/>
<path d="M115.294 216.538C115.95 215.884 117.006 215.884 117.653 216.538C118.309 217.191 118.309 218.243 117.653 218.887C116.996 219.531 115.941 219.531 115.294 218.887C114.637 218.233 114.637 217.182 115.294 216.538Z" fill="#6E3C3F"/>
<path d="M100.825 123.53C101.481 122.876 102.537 122.876 103.184 123.53C103.831 124.183 103.831 125.234 103.184 125.879C102.528 126.532 101.472 126.532 100.825 125.879C100.168 125.225 100.168 124.174 100.825 123.53Z" fill="#6E3C3F"/>
<path d="M112.135 169.371C112.792 170.024 112.792 171.076 112.135 171.72C111.479 172.373 110.423 172.373 109.776 171.72C109.12 171.066 109.12 170.015 109.776 169.371C110.433 168.727 111.488 168.717 112.135 169.371Z" fill="#6E3C3F"/>
<path d="M120.22 284.174C120.877 284.827 120.877 285.878 120.22 286.523C119.564 287.176 118.508 287.176 117.861 286.523C117.205 285.869 117.205 284.818 117.861 284.174C118.518 283.53 119.574 283.52 120.22 284.174Z" fill="#6E3C3F"/>
<path d="M127.793 246.296C128.449 246.949 128.449 248.001 127.793 248.645C127.136 249.298 126.08 249.298 125.433 248.645C124.777 247.991 124.777 246.94 125.433 246.296C126.09 245.652 127.146 245.642 127.793 246.296Z" fill="#6E3C3F"/>
<path d="M144.199 277.861C144.855 278.514 144.855 279.566 144.199 280.21C143.543 280.863 142.487 280.863 141.84 280.21C141.184 279.556 141.184 278.505 141.84 277.861C142.496 277.217 143.552 277.207 144.199 277.861Z" fill="#6E3C3F"/>
<path d="M105.477 227.146C106.133 227.799 106.133 228.851 105.477 229.495C104.82 230.148 103.764 230.148 103.117 229.495C102.461 228.841 102.461 227.79 103.117 227.146C103.774 226.502 104.83 226.492 105.477 227.146Z" fill="#6E3C3F"/>
<path d="M132.112 230.451C132.768 231.105 132.768 232.156 132.112 232.8C131.456 233.454 130.4 233.454 129.753 232.8C129.097 232.147 129.097 231.095 129.753 230.451C130.409 229.807 131.465 229.798 132.112 230.451Z" fill="#6E3C3F"/>
<path d="M117.696 231.145C118.353 231.798 118.353 232.85 117.696 233.494C117.04 234.147 115.984 234.147 115.337 233.494C114.681 232.84 114.681 231.789 115.337 231.145C115.994 230.501 117.05 230.491 117.696 231.145Z" fill="#6E3C3F"/>
<path d="M113.91 260.184C114.567 260.838 114.567 261.889 113.91 262.533C113.254 263.187 112.198 263.187 111.551 262.533C110.895 261.88 110.895 260.828 111.551 260.184C112.207 259.54 113.263 259.531 113.91 260.184Z" fill="#6E3C3F"/>
<path d="M131.465 164.862C132.122 165.516 132.122 166.567 131.465 167.211C130.809 167.865 129.753 167.865 129.106 167.211C128.45 166.558 128.45 165.506 129.106 164.862C129.762 164.218 130.818 164.209 131.465 164.862Z" fill="#6E3C3F"/>
<path d="M120.345 182.669C121.001 182.015 122.057 182.015 122.704 182.669C123.36 183.322 123.36 184.373 122.704 185.017C122.048 185.671 120.992 185.671 120.345 185.017C119.688 184.364 119.688 183.313 120.345 182.669Z" fill="#6E3C3F"/>
<path d="M119.123 276.602C119.78 275.948 120.836 275.948 121.482 276.602C122.139 277.255 122.139 278.306 121.482 278.951C120.826 279.604 119.77 279.604 119.123 278.951C118.467 278.297 118.467 277.246 119.123 276.602Z" fill="#6E3C3F"/>
<path d="M126.696 258.925C127.352 258.272 128.408 258.272 129.055 258.925C129.711 259.579 129.711 260.63 129.055 261.274C128.398 261.928 127.342 261.928 126.696 261.274C126.039 260.621 126.039 259.569 126.696 258.925Z" fill="#6E3C3F"/>
<path d="M102.717 193.271C103.373 192.617 104.429 192.617 105.076 193.271C105.732 193.924 105.732 194.976 105.076 195.62C104.42 196.273 103.364 196.273 102.717 195.62C102.061 194.966 102.061 193.915 102.717 193.271Z" fill="#6E3C3F"/>
<path d="M136.917 112.817C137.679 112.582 138.879 113.21 139.593 114.23C140.307 115.251 140.26 116.265 139.498 116.506C138.736 116.741 137.536 116.113 136.821 115.092C136.107 114.072 136.155 113.057 136.917 112.817Z" fill="#6E3C3F"/>
<path d="M149.755 95.3208C148.696 94.2677 148.636 92.5615 149.621 91.4351L153.734 86.723C157.205 90.4954 162.94 91.5018 167.569 88.8425C169.331 87.8294 171.254 87.3495 173.15 87.3495C176.406 87.3495 179.582 88.7625 181.733 91.3352L164.488 106.225C163.952 106.691 163.275 106.924 162.612 106.924C161.875 106.924 161.138 106.638 160.582 106.091L149.755 95.3208Z" fill="#6E3C3F"/>
<path d="M135.49 119.192C139.123 122.762 143.747 124.601 148.075 124.601C151.488 124.601 154.715 123.451 157.11 121.105L157.144 121.071C158.679 119.557 158.644 117.048 157.062 115.493L156.931 115.365L159.388 112.951C160.172 113.424 161.067 113.674 161.961 113.674C163.103 113.674 164.246 113.289 165.161 112.504L198.981 83.6601C199.999 82.7879 200.612 81.5302 200.66 80.205C200.708 78.8797 200.185 77.5815 199.229 76.6417L178.799 56.5669C177.843 55.6271 176.521 55.12 175.173 55.1605C173.824 55.2079 172.537 55.8096 171.656 56.8103L142.302 90.0429C140.878 91.6521 140.747 93.9713 141.848 95.7158L139.391 98.1296L139.261 98.0011C137.678 96.446 135.125 96.4122 133.57 97.9335C128.12 103.289 128.994 112.815 135.49 119.198V119.192ZM160.213 110.591L152.231 102.748L144.249 94.9044C143.334 94.0051 143.286 92.5514 144.132 91.598L173.487 58.3655C173.941 57.8516 174.574 57.5541 175.269 57.527C175.297 57.527 175.331 57.527 175.358 57.527C176.019 57.527 176.631 57.7772 177.106 58.237L197.536 78.3118C198.025 78.7918 198.286 79.4342 198.259 80.1171C198.231 80.8 197.935 81.422 197.405 81.8683L163.585 110.713C162.608 111.544 161.129 111.49 160.213 110.598V110.591ZM155.225 113.681L141.098 99.7997L143.458 97.4805L157.585 111.362L155.225 113.681ZM137.196 117.515C131.643 112.058 130.769 104.032 135.249 99.6306C135.868 99.0221 136.914 99.0559 137.547 99.678L137.678 99.8064L155.218 117.041L155.348 117.17C155.982 117.792 156.016 118.82 155.417 119.415C150.917 123.837 142.749 122.978 137.196 117.521V117.515Z" fill="#6E3C3F"/>
<path d="M142.424 116.894C143.444 117.37 144.072 118.17 143.837 118.679C143.603 119.187 142.583 119.218 141.563 118.742C140.542 118.266 139.915 117.465 140.149 116.957C140.384 116.449 141.404 116.417 142.424 116.894Z" fill="#6E3C3F"/>
</g>
<defs>
<clipPath id="clip0_246_96">
<rect width="236" height="290" fill="white"/>
</clipPath>
</defs>
</svg>
