<svg width="79" height="35" viewBox="0 0 79 35" fill="none" xmlns="http://www.w3.org/2000/svg">
<g clip-path="url(#clip0_98_351)" filter="url(#filter0_d_98_351)">
<path d="M31.0867 8.79778C28.2323 8.79778 25.9112 11.1375 25.9112 14.0148C25.9112 16.8921 28.2323 19.2318 31.0867 19.2318C33.9411 19.2318 36.2622 16.8921 36.2622 14.0148C36.2622 11.1375 33.9411 8.79778 31.0867 8.79778ZM31.0867 17.9671C28.924 17.9671 27.1659 16.1949 27.1659 14.0148C27.1659 11.8347 28.924 10.0625 31.0867 10.0625C33.2494 10.0625 35.0075 11.8347 35.0075 14.0148C35.0075 16.1949 33.2494 17.9671 31.0867 17.9671Z" fill="#F8F8F8"/>
<path d="M42.2218 8.79778C39.3675 8.79778 37.0463 11.1375 37.0463 14.0148C37.0463 16.8921 39.3675 19.2318 42.2218 19.2318C45.0762 19.2318 47.3973 16.8921 47.3973 14.0148C47.3973 11.1375 45.0762 8.79778 42.2218 8.79778ZM42.2218 17.9671C40.0591 17.9671 38.301 16.1949 38.301 14.0148C38.301 11.8347 40.0591 10.0625 42.2218 10.0625C44.3846 10.0625 46.1427 11.8347 46.1427 14.0148C46.1427 16.1949 44.3846 17.9671 42.2218 17.9671Z" fill="#F8F8F8"/>
<path d="M53.2002 8.79778C50.3458 8.79778 48.0247 11.1375 48.0247 14.0148V18.6785C48.0247 19.0279 48.3054 19.3109 48.652 19.3109C48.9986 19.3109 49.2793 19.0279 49.2793 18.6785V14.0148C49.2793 11.8347 51.0374 10.0625 53.2002 10.0625C55.3629 10.0625 57.121 11.8347 57.121 14.0148V18.7575C57.121 19.1069 57.4017 19.3899 57.7483 19.3899C58.0949 19.3899 58.3757 19.1069 58.3757 18.7575V14.0148C58.3757 11.1375 56.0545 8.79778 53.2002 8.79778Z" fill="#F8F8F8"/>
<path d="M11.0593 9.24814C10.9275 9.12483 10.7346 8.94461 10.4994 8.72802C9.60227 7.89962 7.22154 5.69899 6.90788 5.09666C6.40758 4.13231 6.58794 3.06203 7.39092 2.23047C8.12961 1.46531 9.48622 0.919893 10.7142 1.53013C11.3572 1.84947 11.8669 2.42176 12.1116 3.09997C12.2308 3.4288 12.5899 3.59638 12.9162 3.47781C13.2424 3.35766 13.4102 2.99563 13.291 2.6668C12.9365 1.68505 12.1994 0.856656 11.2678 0.39503C9.70892 -0.378037 7.79085 0.00454401 6.49227 1.34832C5.30818 2.57195 5.04156 4.23349 5.79593 5.68476C6.14096 6.35033 7.52737 7.70043 9.65089 9.66234C9.88144 9.87418 10.0712 10.0512 10.1998 10.173C11.3698 11.2796 12.9209 12.9649 12.8832 14.8224C12.8456 16.7069 10.973 17.9669 9.25881 18.0538C7.22938 18.155 5.47913 16.6705 5.27524 14.6675C5.18271 13.7601 5.39757 12.8858 5.89787 12.1396C6.09234 11.8503 6.01706 11.4567 5.72849 11.2622C5.44149 11.0662 5.05097 11.1421 4.85807 11.433C4.20093 12.41 3.90609 13.6051 4.02685 14.794C4.29033 17.3788 6.47502 19.3217 9.05806 19.3217C9.14589 19.3217 9.23371 19.3201 9.32311 19.3154C10.4915 19.2553 11.6709 18.789 12.5601 18.0364C13.5545 17.1938 14.1159 16.0603 14.1395 14.8462C14.1865 12.4843 12.4033 10.5208 11.0593 9.24972V9.24814Z" fill="#F8F8F8"/>
<path d="M20.1742 8.72032L19.0607 8.74087C16.9576 8.77881 15.2449 10.5368 15.2449 12.6568V25.7151C15.2449 26.0645 15.5257 26.3475 15.8723 26.3475C16.2189 26.3475 16.4996 26.0645 16.4996 25.7151V17.5987C17.541 18.6611 19.0136 19.2492 20.5553 19.1401C23.1274 18.9583 25.1882 16.8652 25.3497 14.2709C25.4407 12.8133 24.9466 11.4253 23.957 10.3645C22.9831 9.3179 21.6077 8.71873 20.1726 8.71873L20.1742 8.72032ZM24.0997 14.1919C23.9774 16.1569 22.4169 17.741 20.4691 17.8785C18.7972 17.9955 17.2336 17.0343 16.578 15.485C16.5576 15.436 16.531 15.3918 16.5012 15.3507V12.6552C16.5012 11.2197 17.6602 10.0293 19.0842 10.004L20.1868 9.98346C21.2814 9.98346 22.2962 10.4261 23.0458 11.2308C23.7939 12.0339 24.1687 13.0852 24.0997 14.1919Z" fill="#F8F8F8"/>
<path d="M61.3555 0.10276C61.0089 0.10276 60.7281 0.385744 60.7281 0.735125V18.7575C60.7281 19.1069 61.0089 19.3899 61.3555 19.3899C61.7021 19.3899 61.9828 19.1069 61.9828 18.7575V0.735125C61.9828 0.385744 61.7021 0.10276 61.3555 0.10276Z" fill="#F8F8F8"/>
<path d="M74.3726 13.3824C74.026 13.3824 73.7453 13.6654 73.7453 14.0148C73.7453 16.1949 71.9872 17.9671 69.8245 17.9671C67.6618 17.9671 65.9036 16.1949 65.9036 14.0148V9.01279C66.0511 9.00014 66.2016 8.98591 66.3553 8.96852C68.8333 8.67921 70.7498 7.71328 71.8947 6.17347C72.1033 5.89364 72.0468 5.49842 71.7692 5.28816C71.4916 5.07789 71.0995 5.13481 70.891 5.41463C69.6802 7.04139 67.599 7.58838 65.9036 7.74015V3.10649C65.9036 2.75711 65.6229 2.47413 65.2763 2.47413C64.9297 2.47413 64.649 2.75711 64.649 3.10649V7.79074C63.7911 7.786 63.2014 7.70221 63.1748 7.69747C62.8329 7.6453 62.5129 7.88243 62.4596 8.22707C62.4078 8.57171 62.6431 8.89422 62.985 8.94797C63.0258 8.95429 63.6845 9.05231 64.6474 9.05863V14.0148C64.6474 16.8921 66.9686 19.2318 69.8229 19.2318C72.6773 19.2318 74.9984 16.8921 74.9984 14.0148C74.9984 13.6654 74.7177 13.3824 74.3711 13.3824H74.3726Z" fill="#F8F8F8"/>
</g>
<defs>
<filter id="filter0_d_98_351" x="0" y="9.53674e-07" width="79" height="34.3459" filterUnits="userSpaceOnUse" color-interpolation-filters="sRGB">
<feFlood flood-opacity="0" result="BackgroundImageFix"/>
<feColorMatrix in="SourceAlpha" type="matrix" values="0 0 0 0 0 0 0 0 0 0 0 0 0 0 0 0 0 0 127 0" result="hardAlpha"/>
<feOffset dy="4"/>
<feGaussianBlur stdDeviation="2"/>
<feComposite in2="hardAlpha" operator="out"/>
<feColorMatrix type="matrix" values="0 0 0 0 0 0 0 0 0 0 0 0 0 0 0 0 0 0 0.25 0"/>
<feBlend mode="normal" in2="BackgroundImageFix" result="effect1_dropShadow_98_351"/>
<feBlend mode="normal" in="SourceGraphic" in2="effect1_dropShadow_98_351" result="shape"/>
</filter>
<clipPath id="clip0_98_351">
<rect width="71" height="26.3459" fill="white" transform="translate(4)"/>
</clipPath>
</defs>
</svg>