<svg width="16" height="23" viewBox="0 0 16 23" fill="none" xmlns="http://www.w3.org/2000/svg">
<g clip-path="url(#clip0_111_348)">
<path d="M1.55271 12.2978L3.49585 14.0374C3.6521 14.1772 3.65044 14.4034 3.49253 14.5418C3.33794 14.6787 3.08694 14.6772 2.93402 14.5403L0.0317688 11.9421L2.93236 9.34544C3.08694 9.20704 3.33628 9.20704 3.49086 9.34395C3.64878 9.48234 3.64878 9.70853 3.49419 9.84841L1.55105 11.588H8.81831C9.03772 11.588 9.21558 11.7472 9.21558 11.9436C9.21558 12.14 9.03772 12.2993 8.81831 12.2993H1.55271V12.2978Z" fill="#F8F8F8"/>
</g>
<path d="M3.81403 1.13617H14.6205V22.4789H3.81403" stroke="#F8F8F8" stroke-width="0.810483" stroke-linecap="round"/>
<defs>
<clipPath id="clip0_111_348">
<rect width="9.18547" height="5.40322" fill="white" transform="translate(0.0317688 9.24097)"/>
</clipPath>
</defs>
</svg>
