<svg width="19" height="24" viewBox="0 0 19 24" fill="none" xmlns="http://www.w3.org/2000/svg">
<g clip-path="url(#clip0_91_117)">
<path d="M16.0423 24H2.95771C2.14648 24 1.44392 23.7143 0.869459 23.1467C0.294995 22.5829 0 21.8895 0 21.0971V10.3924C0 9.59619 0.291113 8.90667 0.869459 8.34286C1.44392 7.77905 2.14648 7.48952 2.95771 7.48952H3.27211V6.11048C3.27211 4.42667 3.88539 2.97143 5.09254 1.78667C6.30358 0.601905 7.78631 0 9.50194 0C11.2176 0 12.7003 0.601905 13.9075 1.78667C15.1185 2.97143 15.7279 4.42667 15.7279 6.11048V7.48952H16.0423C16.8535 7.48952 17.5561 7.77524 18.1305 8.34286C18.705 8.90667 19 9.59619 19 10.3924V21.0971C19 21.8933 18.7089 22.5829 18.1305 23.1467C17.5522 23.7105 16.8496 24 16.0423 24ZM2.95771 9.01714C2.5618 9.01714 2.2474 9.14667 1.96793 9.42095C1.68458 9.69905 1.55649 10.0076 1.55649 10.3924V21.0971C1.55649 21.4857 1.68846 21.7943 1.96793 22.0686C2.25128 22.3467 2.56568 22.4724 2.95771 22.4724H16.0423C16.4382 22.4724 16.7526 22.3429 17.0321 22.0686C17.3154 21.7905 17.4435 21.4819 17.4435 21.0971V10.3924C17.4435 10.0038 17.3115 9.69524 17.0321 9.42095C16.7487 9.14286 16.4343 9.01333 16.0423 9.01333H14.1753V6.11048C14.1753 4.82667 13.7289 3.76762 12.809 2.86476C11.8891 1.9619 10.8061 1.52381 9.50194 1.52381C8.19775 1.52381 7.11481 1.9619 6.19101 2.86476C5.27109 3.76762 4.82472 4.83048 4.82472 6.11048V9.01333H2.95771V9.01714ZM13.5465 9.01714H5.45352V6.11429C5.45352 5.01714 5.84944 4.07238 6.6335 3.30286C7.41757 2.53333 8.38018 2.14476 9.49806 2.14476C10.6159 2.14476 11.5785 2.53333 12.3626 3.30286C13.1467 4.07238 13.5426 5.01714 13.5426 6.11429V9.01714H13.5465ZM7.00613 7.49333H11.9978V6.11429C11.9978 5.42476 11.761 4.85714 11.2719 4.37714C10.7828 3.89714 10.2045 3.66476 9.50194 3.66476C8.79939 3.66476 8.22104 3.89714 7.73197 4.37714C7.2429 4.85714 7.00613 5.42476 7.00613 6.11429V7.49333Z" fill="#6E3C3F"/>
<path d="M9.50193 17.9048C10.8953 17.9048 12.0249 16.7961 12.0249 15.4286C12.0249 14.061 10.8953 12.9524 9.50193 12.9524C8.10852 12.9524 6.97894 14.061 6.97894 15.4286C6.97894 16.7961 8.10852 17.9048 9.50193 17.9048Z" fill="#6E3C3F"/>
</g>
<defs>
<clipPath id="clip0_91_117">
<rect width="19" height="24" fill="white"/>
</clipPath>
</defs>
</svg>
