<svg width="20" height="24" viewBox="0 0 20 24" fill="none" xmlns="http://www.w3.org/2000/svg">
<g clip-path="url(#clip0_8_187)">
<path d="M6.59402 19.7662C5.93711 19.7662 5.38605 19.5477 4.94707 19.1138C4.5081 18.68 4.28705 18.1354 4.28705 17.4862V2.28C4.28705 1.63077 4.5081 1.08615 4.94707 0.652308C5.38605 0.218462 5.93711 0 6.59402 0H17.693C18.3499 0 18.901 0.218462 19.34 0.652308C19.779 1.08615 20 1.63077 20 2.28V17.4831C20 18.1323 19.779 18.6769 19.34 19.1108C18.901 19.5446 18.3499 19.7631 17.693 19.7631H6.59402V19.7662ZM6.59402 18.3538H17.693C17.9141 18.3538 18.1133 18.2646 18.297 18.0831C18.4807 17.9015 18.571 17.7015 18.571 17.4862V2.28C18.571 2.06154 18.4807 1.86462 18.297 1.68308C18.1133 1.50154 17.911 1.41231 17.693 1.41231H6.59402C6.37298 1.41231 6.17372 1.50154 5.99004 1.68308C5.80635 1.86462 5.71607 2.06462 5.71607 2.28V17.4831C5.71607 17.7015 5.80635 17.8985 5.99004 18.08C6.17372 18.2615 6.37609 18.3508 6.59402 18.3508V18.3538ZM2.30697 24C1.65006 24 1.099 23.7815 0.660025 23.3477C0.221046 22.9138 0 22.3692 0 21.72V5.80923C0 5.60923 0.0684932 5.44 0.205479 5.30462C0.342466 5.16923 0.510585 5.10154 0.716065 5.10154C0.918431 5.10154 1.08966 5.16923 1.22665 5.30462C1.36364 5.44 1.43213 5.60615 1.43213 5.80923V21.72C1.43213 21.9385 1.52242 22.1354 1.7061 22.3169C1.88979 22.4985 2.09215 22.5877 2.31009 22.5877H14.122C14.3244 22.5877 14.4956 22.6554 14.6326 22.7908C14.7696 22.9262 14.8381 23.0923 14.8381 23.2954C14.8381 23.4954 14.7696 23.6646 14.6326 23.8C14.4956 23.9354 14.3275 24.0031 14.122 24.0031H2.30697V24Z" fill="#3C3638"/>
</g>
<defs>
<clipPath id="clip0_8_187">
<rect width="20" height="24" fill="white"/>
</clipPath>
</defs>
</svg>
