<svg width="21" height="21" viewBox="0 0 21 21" fill="none" xmlns="http://www.w3.org/2000/svg">
<g clip-path="url(#clip0_97_332)">
<path d="M10.36 10.36C9.00403 10.36 7.83992 9.87549 6.87415 8.90973C5.90839 7.94397 5.42388 6.77985 5.42388 5.42388C5.42388 4.06791 5.90839 2.90379 6.87415 1.93803C7.83992 0.972266 9.00403 0.487759 10.36 0.487759C11.716 0.487759 12.8801 0.972266 13.8459 1.93803C14.8116 2.90379 15.2961 4.06791 15.2961 5.42388C15.2961 6.77985 14.8116 7.94397 13.8459 8.90973C12.8801 9.87549 11.716 10.36 10.36 10.36ZM0.487762 20.2322V16.7757C0.487762 16.0765 0.666607 15.4327 1.02755 14.8474C1.38849 14.2621 1.86649 13.8133 2.46156 13.5044C3.73624 12.8671 5.03368 12.3891 6.34737 12.0704C7.66107 11.7517 9.00078 11.5924 10.3568 11.5924C11.7127 11.5924 13.0524 11.7517 14.3661 12.0704C15.6798 12.3891 16.9773 12.8671 18.2519 13.5044C18.847 13.8133 19.325 14.2588 19.686 14.8474C20.0469 15.4359 20.2257 16.0765 20.2257 16.7757V20.2322H0.487762Z" stroke="#F8F8F8" stroke-width="0.975518" stroke-miterlimit="10"/>
</g>
<defs>
<clipPath id="clip0_97_332">
<rect width="20.72" height="20.72" fill="white"/>
</clipPath>
</defs>
</svg>
