<svg width="24" height="24" viewBox="0 0 24 24" fill="none" xmlns="http://www.w3.org/2000/svg">
<g clip-path="url(#clip0_4_23)">
<path d="M15.5008 16.9926C17.8705 16.9926 19.8831 16.1684 21.5292 14.5232C23.1754 12.8747 24 10.8663 24 8.49474C24 6.12316 23.1754 4.11789 21.5292 2.46947C19.8799 0.824211 17.8705 0 15.5008 0C13.1311 0 11.1185 0.824211 9.47235 2.46947C7.82623 4.11789 7.00158 6.12632 7.00158 8.49474C7.00158 9.52421 7.18484 10.5221 7.54818 11.4853C7.91469 12.4484 8.39179 13.2726 8.98578 13.9579L0.224329 22.7147C0.0853081 22.8537 0.01264 23.0242 0.00316048 23.2263C-0.00631714 23.4284 0.0663509 23.6084 0.224329 23.7663C0.382307 23.9242 0.556084 24.0032 0.748817 24.0032C0.941549 24.0032 1.11532 23.9242 1.2733 23.7663L10.0348 15.0095C10.7773 15.6411 11.6303 16.1305 12.594 16.4747C13.5577 16.8221 14.5276 16.9926 15.5008 16.9926ZM15.5008 15.5084C13.5324 15.5084 11.8705 14.8326 10.515 13.4779C9.15956 12.1232 8.48341 10.4621 8.48341 8.49474C8.48341 6.52737 9.15956 4.86632 10.515 3.51158C11.8705 2.15684 13.5324 1.48105 15.5008 1.48105C17.4692 1.48105 19.1311 2.15684 20.4866 3.51158C21.842 4.86632 22.5182 6.52737 22.5182 8.49474C22.5182 10.4621 21.842 12.1232 20.4866 13.4779C19.1311 14.8326 17.4692 15.5084 15.5008 15.5084Z" fill="#6E3C3F"/>
</g>
<defs>
<clipPath id="clip0_4_23">
<rect width="24" height="24" fill="white" transform="matrix(-1 0 0 1 24 0)"/>
</clipPath>
</defs>
</svg>
