<svg width="94" height="128" viewBox="0 0 94 128" fill="none" xmlns="http://www.w3.org/2000/svg">
<g clip-path="url(#clip0_96_209)">
<path d="M47 52.6635C24.2164 52.6635 0 47.2986 0 37.3585C0 32.8637 4.99333 28.9802 14.4416 26.1323C23.1609 23.5008 34.7244 22.0535 47 22.0535C69.7836 22.0535 94 27.4183 94 37.3585C94 41.8532 89.0067 45.7367 79.5584 48.5847C70.8391 51.2161 59.2756 52.6635 47 52.6635ZM47 25.2876C35.0296 25.2876 23.7967 26.6883 15.3742 29.2264C7.76975 31.5183 3.22998 34.5615 3.22998 37.3585C3.22998 40.1555 7.76975 43.1944 15.3742 45.4906C23.801 48.0329 35.0296 49.4293 47 49.4293C58.9704 49.4293 70.2033 48.0287 78.6258 45.4906C86.2303 43.1986 90.77 40.1555 90.77 37.3585C90.77 34.5615 86.2303 31.5225 78.6258 29.2264C70.1991 26.684 58.9704 25.2876 47 25.2876Z" fill="#6E3C3F"/>
<path d="M88.8287 47.3835C87.9385 47.3835 87.2137 48.105 87.2137 49.0006V113.769C87.2137 116.252 82.9579 119.078 76.1122 121.141C68.3594 123.48 58.0167 124.766 47 124.766C35.9833 124.766 25.6406 123.48 17.8878 121.141C11.0379 119.074 6.78638 116.252 6.78638 113.769V48.9964C6.78638 48.1051 6.06578 47.3793 5.17139 47.3793C4.277 47.3793 3.5564 48.1008 3.5564 48.9964V113.765C3.5564 123.009 25.9416 127.996 47 127.996C68.0585 127.996 90.4437 123.009 90.4437 113.765V48.9964C90.4437 48.1051 89.7231 47.3793 88.8287 47.3793V47.3835Z" fill="#6E3C3F"/>
<path d="M79.6771 5.92505C75.0991 5.92505 71.3605 9.56243 71.174 14.0996C71.1655 14.159 71.157 14.2184 71.157 14.2779V14.4561L71.1104 47.6764C71.9582 47.6764 73.2298 46.8275 74.5015 46.8275L74.3828 14.4561C74.3828 11.536 76.7565 9.15922 79.6771 9.15922C82.5976 9.15922 84.9713 11.536 84.9713 14.4604C84.9713 15.3517 85.6962 16.0774 86.5863 16.0774C87.4765 16.0774 88.2013 15.3517 88.2013 14.4604C88.2013 9.75766 84.3779 5.92929 79.6813 5.92929L79.6771 5.92505Z" fill="#6E3C3F"/>
<path d="M31.1426 17.5715C30.4856 17.5715 29.8667 17.1682 29.6293 16.5146C29.3199 15.6785 29.748 14.749 30.5873 14.4392C30.7568 14.3755 30.9688 14.2736 31.0239 14.1505C31.3036 13.5054 30.4856 11.5658 29.8879 10.1481C28.612 7.11347 26.8656 2.95828 30.138 0.352275C30.8374 -0.203731 31.8505 -0.0848897 32.4057 0.611178C32.961 1.31149 32.8423 2.32588 32.1472 2.88189C30.884 3.88354 31.6131 5.91232 32.8635 8.89183C33.8681 11.2771 34.8134 13.5266 33.9826 15.4366C33.5714 16.3788 32.8042 17.0664 31.6979 17.4738C31.5156 17.5417 31.3248 17.5757 31.1383 17.5757L31.1426 17.5715Z" fill="#6E3C3F"/>
<path d="M44.5627 17.5715C43.9057 17.5715 43.2868 17.1682 43.0494 16.5146C42.74 15.6785 43.1681 14.749 44.0074 14.4392C44.1769 14.3755 44.3889 14.2736 44.444 14.1505C44.7237 13.5054 43.9057 11.5658 43.308 10.1481C42.0321 7.11347 40.2857 2.95828 43.5581 0.352275C44.2575 -0.203731 45.2706 -0.0848897 45.8258 0.611178C46.3811 1.31149 46.2624 2.32588 45.5673 2.88189C44.3041 3.88354 45.0332 5.91232 46.2836 8.89183C47.2882 11.2771 48.2335 13.5266 47.4027 15.4366C46.9958 16.3788 46.2243 17.0664 45.118 17.4738C44.9357 17.5417 44.7449 17.5757 44.5584 17.5757L44.5627 17.5715Z" fill="#6E3C3F"/>
<path d="M57.9786 17.5715C57.3215 17.5715 56.7027 17.1682 56.4653 16.5146C56.1559 15.6785 56.584 14.749 57.4233 14.4392C57.5928 14.3755 57.8048 14.2736 57.8599 14.1505C58.1396 13.5054 57.3216 11.5658 56.7239 10.1481C55.448 7.11347 53.7016 2.95828 56.974 0.352275C57.6734 -0.203731 58.6864 -0.0848897 59.2417 0.611178C59.797 1.31149 59.6783 2.32588 58.9832 2.88189C57.72 3.88354 58.4491 5.91232 59.6995 8.89183C60.7041 11.2771 61.6494 13.5266 60.8186 15.4366C60.4116 16.3788 59.6402 17.0664 58.5338 17.4738C58.3516 17.5417 58.1608 17.5757 57.9743 17.5757L57.9786 17.5715Z" fill="#6E3C3F"/>
</g>
<defs>
<clipPath id="clip0_96_209">
<rect width="94" height="128" fill="white"/>
</clipPath>
</defs>
</svg>
