<svg width="45" height="38" viewBox="0 0 45 38" fill="none" xmlns="http://www.w3.org/2000/svg">
<g clip-path="url(#clip0_7_79)">
<ellipse cx="29.7719" cy="19.913" rx="8.77193" ry="8.91304" fill="#FC7562"/>
<path d="M44.9738 10.2414C45.0131 10.6045 45.0131 11.324 44.9738 11.6804C44.8229 13.1867 43.9701 14.8947 43.0386 16.0513C42.7697 16.3875 41.5037 17.5307 41.4643 17.766V33.8913C41.1888 36.1037 39.5488 37.7713 37.3776 37.9933H7.5831C5.37246 37.7579 3.6538 36.0028 3.49636 33.7165V17.766C3.07654 17.1272 2.40744 16.6565 1.92202 16.0513C-1.26603 12.0973 -0.288623 7.59863 3.37173 4.47175C6.64505 1.6811 11.6436 0.336201 15.8418 0.141191C20.0401 -0.0538183 24.9599 -0.0538183 29.0204 0.141191C34.5831 0.416895 44.2588 3.42946 44.9672 10.2346L44.9738 10.2414ZM15.6057 1.97697C11.4665 2.21233 6.10059 3.71189 3.31925 7.0405C1.27916 9.48149 1.21356 12.3999 3.23397 14.8812C3.63412 15.3721 5.18222 16.6094 5.24782 17.0532V33.6358C5.3659 35.021 6.32362 36.0297 7.66837 36.1978H26.121C27.4723 36.0835 28.4563 35.095 28.6203 33.7165L28.64 16.9725C28.7187 16.6229 30.2733 15.3318 30.6407 14.8812C32.4774 12.6218 32.6414 9.94547 30.9424 7.55156C27.8593 3.1941 20.5452 1.70127 15.6057 1.9837V1.97697ZM29.5058 36.1911H37.4563C38.414 36.1911 39.6735 34.7924 39.6866 33.7905L39.7128 16.9658C39.7916 16.6162 41.3462 15.3251 41.7136 14.8745C44.2588 11.7476 43.3273 8.31143 40.441 5.91079C36.8725 2.9453 31.2573 1.77524 26.7376 1.94335C26.6327 1.94335 26.4096 1.87611 26.4293 2.03077C32.1166 4.2364 36.6363 10.2414 31.9592 16.0446C31.6902 16.3808 30.4242 17.524 30.3848 17.7593V33.7098C30.3127 34.6041 30.0109 35.4581 29.5058 36.1844V36.1911Z" fill="#3C3638"/>
<path d="M22.5393 15.1368C22.7821 15.3856 22.8608 15.863 22.6902 16.1791L12.3651 26.7701C11.578 27.1198 10.8564 26.3801 11.1975 25.5732L21.5226 14.9821C21.8309 14.814 22.2901 14.888 22.5393 15.1368Z" fill="#3C3638"/>
<path d="M14.4381 14.8813C15.3827 14.8813 15.527 15.8093 15.0088 16.5019C14.5955 17.0533 11.8076 19.965 11.3156 20.2878C10.3316 20.94 9.41328 19.9179 10.1808 18.8555C10.7252 18.1023 12.8572 15.9572 13.605 15.3386C13.8477 15.1368 14.1035 14.888 14.4381 14.888V14.8813Z" fill="#3C3638"/>
<path d="M23.0773 21.2493C23.9825 21.1485 24.2449 22.1639 23.707 22.8968C23.3528 23.3877 20.3025 26.5079 19.8892 26.7298C18.9577 27.2341 18.1312 26.2523 18.879 25.2437C19.4038 24.5443 21.8047 22.0563 22.4738 21.5452C22.6378 21.4175 22.8673 21.2695 23.0707 21.2493H23.0773Z" fill="#3C3638"/>
<path d="M16.8389 12.326C17.9344 12.1848 18.2099 13.9735 17.0685 14.108C15.8484 14.2559 15.7631 12.4605 16.8389 12.326Z" fill="#3C3638"/>
<path d="M16.7471 27.651C17.7704 27.4493 18.2165 28.8009 17.3768 29.2918C16.2092 29.9777 15.4876 27.8998 16.7471 27.651Z" fill="#3C3638"/>
<path d="M38.6239 10.08C39.9818 9.77065 39.6932 11.7611 39.6013 12.5277C39.2668 15.399 37.9351 17.8198 36.1902 20.0187V33.5349C35.9672 34.6579 34.6618 34.6781 34.4322 33.5349V19.4808C34.5175 18.9697 35.1144 18.5125 35.3965 18.1224C36.9315 15.9841 37.6334 14.3029 37.9483 11.6333C38.0139 11.0886 37.8367 10.2548 38.6305 10.0733L38.6239 10.08Z" fill="#3C3638"/>
</g>
<defs>
<clipPath id="clip0_7_79">
<rect width="45" height="38" fill="white"/>
</clipPath>
</defs>
</svg>
