<svg width="50" height="41" viewBox="0 0 50 41" fill="none" xmlns="http://www.w3.org/2000/svg">
<g clip-path="url(#clip0_7_50)">
<ellipse cx="31.5789" cy="9.80434" rx="8.77193" ry="8.91304" fill="#FC7562"/>
<path d="M47.3684 14.1908V33.5218C47.1288 33.9341 46.8613 33.9341 46.4433 34.02L4.39487 40.9943C4.03262 41.0401 3.70939 40.8569 3.6035 40.4904C3.69267 39.3223 3.41959 37.7705 3.59235 36.6482C3.73168 35.7435 4.95774 36.0756 4.95774 36.5566V39.4998L46.003 32.6457V27.813L45.546 27.8244C34.2662 29.714 22.9753 31.6036 11.6955 33.4188C10.7648 33.121 11.0045 32.0216 11.9519 31.9643L46.003 26.3185V22.19L45.546 22.2015L22.9586 25.9692C21.9945 26.1238 21.6601 24.8526 22.6409 24.5892L46.003 20.7013V15.7826L22.6242 19.745C22.0558 19.9741 21.4985 20.6669 21.3926 21.291C21.0025 23.6559 22.2397 27.1545 20.1777 28.9124C18.1156 30.6703 14.9223 29.5709 14.5545 26.8682C14.4709 26.2383 14.6158 25.8432 14.2814 25.2191C13.295 23.3982 10.6701 24.0109 10.4416 26.0207C10.1685 28.3627 11.0602 32.7889 9.74497 34.6212C7.9003 37.1979 4.04377 36.1214 3.61465 33.0179C3.7484 30.0748 3.35271 26.8167 3.59235 23.9078C3.75954 21.835 4.87415 20.8559 6.41787 19.7851C12.4925 15.5765 18.9293 11.8889 25.0262 7.71464C25.8844 7.15922 26.6535 8.33305 25.7674 8.91138C19.1745 13.2059 12.537 17.4374 5.98318 21.7949C5.46489 22.4076 5.04134 23.1692 4.96332 23.9937C4.69024 26.7823 5.15837 30.0232 4.96889 32.8576C5.47046 35.3828 8.85328 35.1824 9.07063 32.6057C9.24339 30.5271 8.90344 28.1852 9.06506 26.0952C9.39387 21.8465 15.2511 21.4915 15.8976 25.8432C15.9923 26.4845 15.814 26.8796 16.2487 27.5038C17.3131 29.0269 19.8154 28.3283 20.0105 26.4502C20.3504 23.1978 18.7175 19.0922 23.07 18.1704L46.003 14.3683C45.4569 10.8754 42.0629 8.98582 39.1203 7.86924C36.384 6.82711 33.4414 6.26023 30.549 5.87659C29.7688 6.05982 28.1861 7.6402 27.4895 7.61157C26.8597 7.58867 26.6702 6.87864 27.0436 6.40338L29.9472 4.50807C30.3261 4.35919 31.5299 4.56533 32.0036 4.62831C36.7964 5.28108 45.3677 7.57149 47.0452 12.891L47.3628 14.1908H47.3684Z" fill="#3C3638"/>
</g>
<defs>
<clipPath id="clip0_7_50">
<rect width="50" height="41" fill="white"/>
</clipPath>
</defs>
</svg>
