<svg width="41" height="41" viewBox="0 0 41 41" fill="none" xmlns="http://www.w3.org/2000/svg">
<g clip-path="url(#clip0_7_55)">
<ellipse cx="24.3662" cy="13.2359" rx="8.99123" ry="9.13587" fill="#FC7562"/>
<path d="M21.7161 41H19.3129C3.18687 40.0764 -5.77009 21.1506 4.16209 8.17908C4.33624 7.95253 5.10249 6.98243 5.27083 6.88948C5.75844 6.61065 6.3041 7.04052 6.1764 7.55171C6.11254 7.80731 5.16054 8.85874 4.92834 9.18985C0.133495 15.998 -0.0870911 24.8626 4.80063 31.7056C11.0235 40.4133 22.9874 42.3767 31.7412 36.1843C32.1475 35.8997 33.0531 35.0225 33.4188 34.9005C34.0167 34.6972 34.423 35.3304 34.1096 35.83C34.0109 35.9868 32.9776 36.7827 32.7512 36.9511C29.6572 39.2747 25.5706 40.7734 21.7161 41Z" fill="#3C3638"/>
<path d="M41 8.57407V9.29439C40.6401 10.6014 39.2644 11.2695 38.0628 10.5085C37.1862 9.95662 36.9656 8.67283 37.5984 7.84795C38.6549 6.4654 40.5066 7.02307 41 8.56827V8.57407ZM39.6127 9.428C40.1815 8.80063 39.334 7.8828 38.6723 8.44628C37.9234 9.08527 39.0206 10.0728 39.6127 9.428Z" fill="#3C3638"/>
<path d="M40.4137 22.7713C40.6285 22.9862 40.7736 23.4277 40.7562 23.7298C40.6111 26.5297 38.353 31.0085 36.5999 33.1869C36.4548 33.3669 36.002 33.9653 35.8627 34.0582C35.346 34.4067 34.7655 34.0756 34.8758 33.4657C35.5434 32.5072 36.3038 31.6242 36.925 30.6251C38.2543 28.4699 39.1018 26.1115 39.5662 23.6194C38.7013 23.6485 37.9292 23.6717 37.0701 23.5149C35.1022 23.1489 33.3085 21.8128 32.3507 20.0701C32.1475 19.6983 31.8341 18.6934 31.6077 18.4901C31.3813 18.2867 29.9997 17.9963 29.5469 17.8336C23.6724 15.6727 20.8918 8.87034 23.4692 3.14846C23.655 2.73021 24.131 2.08541 24.2471 1.76011C24.2819 1.65555 24.3167 1.64393 24.2064 1.55679C22.7436 1.3012 21.2459 1.13855 19.7599 1.19664C16.1202 1.34186 12.5038 2.58499 9.53745 4.65881C9.17755 4.90859 7.8134 6.09363 7.5812 6.15172C7.08779 6.27371 6.67564 5.77414 6.88461 5.28618C6.95427 5.12934 7.99335 4.29865 8.20813 4.13019C12.2019 1.06303 17.4437 -0.383415 22.4766 0.0871148C23.0222 0.139396 24.4096 0.296239 24.845 0.522791C26.3368 1.28958 24.8043 3.03228 24.4038 4.01401C22.3663 8.99814 24.874 14.8071 29.8836 16.7009C30.6266 16.9797 31.7354 17.0959 32.3217 17.5432C32.908 17.9905 32.9892 18.6527 33.3085 19.2801C34.156 20.9298 35.8104 22.1962 37.6854 22.4286C38.5039 22.5273 39.8216 22.173 40.4195 22.7771L40.4137 22.7713Z" fill="#3C3638"/>
<path d="M34.4927 3.71776C34.8468 4.07211 35.1835 4.76339 35.2299 5.25715C35.2996 5.93681 34.603 8.60314 34.2315 9.20728C33.1692 10.9209 31.2303 10.3284 29.7211 9.65457C27.8345 8.80646 27.6719 7.16251 28.2757 5.32686C28.7575 3.85137 30.4351 3.47379 31.7818 3.15429C32.8093 2.91031 33.6974 2.92193 34.4927 3.71776ZM32.6642 4.18829C32.2462 4.21153 30.2319 4.82148 29.9184 5.05384C29.634 5.26296 29.4482 5.59408 29.3554 5.931C29.1232 6.76169 28.9664 7.84216 29.8023 8.37078C30.0578 8.53343 31.6193 9.10853 31.9211 9.13757C32.3913 9.18404 32.8499 9.07948 33.1518 8.68447C33.3956 8.37078 34.0689 5.81482 34.0399 5.41981C33.9935 4.775 33.3201 4.14763 32.6642 4.18829Z" fill="#3C3638"/>
<path d="M24.4154 25.7281C28.6124 25.0717 29.5295 31.0956 25.7389 31.9321C21.4259 32.8906 20.4158 26.3497 24.4154 25.7281ZM24.578 26.9306C22.3663 27.3082 22.6623 30.9504 25.1062 30.8284C27.7358 30.7006 27.5036 26.431 24.578 26.9306Z" fill="#3C3638"/>
<path d="M11.4589 10.9151C15.8242 10.8222 15.6965 17.6826 11.1164 17.2237C7.41287 16.8519 7.52317 11.0023 11.4589 10.9151ZM10.1412 12.6869C8.28361 14.5458 11.1686 17.3108 12.9566 15.4636C14.7445 13.6163 11.9407 10.8803 10.1412 12.6869Z" fill="#3C3638"/>
<path d="M35.4563 12.1176C36.3851 11.9724 37.2617 12.53 37.9176 13.14C39.2527 14.3831 38.353 15.6843 37.3603 16.7415C36.5999 17.5548 35.7988 18.037 34.7017 17.398C34.0864 17.0378 33.1808 15.0569 33.1692 14.3715C33.146 13.2039 34.4114 12.286 35.4621 12.1176H35.4563ZM34.545 13.8777C34.2721 14.2088 34.4463 14.5574 34.5624 14.8943C34.7481 15.4287 35.1255 16.6021 35.8046 16.4685C36.1645 16.3988 37.3197 15.0163 37.3661 14.6619C37.4242 14.2204 36.4374 13.3956 36.0658 13.3142C35.7292 13.2387 34.7481 13.6395 34.545 13.8777Z" fill="#3C3638"/>
<path d="M12.3354 24.4501C16.1028 23.8983 16.2653 29.4284 12.8636 29.4633C9.7232 29.4982 9.47359 24.8684 12.3354 24.4501ZM12.4921 25.6468C10.9596 25.9314 11.3079 28.3828 12.9333 28.255C14.6922 28.1156 14.4484 25.2866 12.4921 25.6468Z" fill="#3C3638"/>
<path d="M19.8469 15.4113C22.2153 15.3764 22.3547 18.9083 20.1546 19.1465C17.4089 19.4427 17.3392 15.452 19.8469 15.4113ZM19.8469 16.6021C18.982 16.6486 18.9878 18.1531 20.0733 17.9382C20.7873 17.7988 20.6074 16.5615 19.8469 16.6021Z" fill="#3C3638"/>
<path d="M26.0176 21.2435C26.8825 21.0634 27.225 21.8709 26.4936 22.3589C26.1685 22.5738 25.2397 23.0269 24.874 22.992C24.427 22.9456 24.2993 22.3589 24.5606 22.0277C24.6709 21.8941 25.8318 21.2784 26.0118 21.2435H26.0176Z" fill="#3C3638"/>
<path d="M30.9401 24.6128C31.2071 24.2816 31.6947 24.3746 31.9444 24.7231C32.0721 24.9032 32.6468 26.0766 32.6642 26.2509C32.7106 26.7447 31.9908 27.1281 31.6019 26.6691C31.5206 26.5762 30.8763 25.2808 30.8588 25.1704C30.824 24.9903 30.824 24.7638 30.9459 24.6128H30.9401Z" fill="#3C3638"/>
<path d="M17.1361 31.4906C17.734 31.3686 18.0997 31.9089 17.8036 32.4026C17.7166 32.5479 16.3292 33.2508 16.1202 33.2856C15.5746 33.3727 15.2263 32.7047 15.6036 32.2807C15.6674 32.2051 17.0142 31.5197 17.1419 31.4964L17.1361 31.4906Z" fill="#3C3638"/>
<path d="M7.4535 19.4079C7.55219 19.4892 8.25458 20.8892 8.27199 21.0344C8.35326 21.7024 7.61604 21.9522 7.23292 21.5107C7.12263 21.3829 6.44345 20.0294 6.43184 19.9016C6.39701 19.4021 7.07038 19.1 7.4477 19.4079H7.4535Z" fill="#3C3638"/>
<path d="M17.7746 8.06869C17.3044 8.64959 16.364 7.74339 16.155 7.29028C15.888 6.70357 16.4859 6.16334 17.078 6.61063C17.4669 6.90108 18.1751 7.56912 17.7746 8.06869Z" fill="#3C3638"/>
<path d="M19.847 10.2761C20.3636 10.2471 20.5494 10.7641 20.3752 11.194C20.323 11.3218 19.6612 11.984 19.5335 12.0363C18.9414 12.2802 18.4596 11.7807 18.715 11.2172C18.8021 11.0313 19.6206 10.2936 19.847 10.2761Z" fill="#3C3638"/>
<path d="M15.1334 21.2435C15.8242 21.0402 17.0432 22.3414 16.4337 22.8643C15.9344 23.2941 15.1856 22.5564 14.9186 22.1497C14.7154 21.8477 14.7793 21.3539 15.1334 21.2435Z" fill="#3C3638"/>
<path d="M22.6217 34.8599C22.7378 34.7204 23.0106 34.6565 23.1906 34.6798C23.8755 34.7611 23.922 36.2773 23.2428 36.4864C22.3895 36.7478 22.3547 35.1968 22.6217 34.8599Z" fill="#3C3638"/>
<path d="M19.847 16.6021C20.6074 16.5615 20.7873 17.7988 20.0733 17.9382C18.9878 18.1532 18.982 16.6486 19.847 16.6021Z" fill="#F8F8F8"/>
</g>
<defs>
<clipPath id="clip0_7_55">
<rect width="41" height="41" fill="white"/>
</clipPath>
</defs>
</svg>
