<svg width="52" height="36" viewBox="0 0 52 36" fill="none" xmlns="http://www.w3.org/2000/svg">
<g clip-path="url(#clip0_6_23)">
<circle cx="12" cy="14" r="10" fill="#FC7562"/>
<path d="M24.135 0.0913695C24.8213 -0.0243665 27.0713 -0.0243665 27.7696 0.0730954C28.6887 0.201014 29.5958 1.07817 29.751 2.01624C29.8345 2.53401 29.6615 4.92792 29.8763 5.0802C41.4484 6.80406 50.329 17.5736 50.0902 29.5249C50.9258 29.9574 51.6599 30.4508 51.8628 31.4619C52.2447 33.3442 51.8628 35.8538 49.5949 35.9939H2.3992C0.119391 35.8538 -0.250631 33.3381 0.131327 31.4619C0.334242 30.4508 1.06832 29.9574 1.90385 29.5249C1.66513 17.5614 10.5457 6.82233 22.1178 5.0802C22.3386 4.92792 22.1655 2.6802 22.2192 2.20508C22.3267 1.21218 23.1622 0.249745 24.135 0.0852782V0.0913695ZM28.0501 4.8V2.21117C28.0501 2.16853 27.7755 1.94315 27.698 1.9066C27.3816 1.77259 24.9705 1.76041 24.5468 1.82741C24.3857 1.85178 23.944 2.08325 23.944 2.20508V4.79391C25.3107 4.65381 26.6774 4.65381 28.0501 4.79391V4.8ZM48.3535 29.4883C48.4848 22.1909 44.9457 15.1431 39.2104 10.8792C31.3862 5.06802 20.6138 5.05584 12.7956 10.8792C7.04835 15.1553 3.52717 22.1726 3.6525 29.4883H48.3595H48.3535ZM2.53647 31.2792C2.04709 31.4071 1.85014 31.5472 1.80239 32.0711C1.74271 32.7411 1.59948 34.2518 2.50663 34.2274H49.38C49.8933 34.2335 50.126 34.0264 50.1857 33.5086C50.2812 32.6497 50.4125 31.2305 49.2666 31.2487L2.5305 31.2731L2.53647 31.2792Z" fill="#3C3638"/>
<path d="M20.6854 9.34416C21.5687 9.25279 22.0163 10.1848 21.4673 10.8122C21.1987 11.1168 19.1576 11.6954 18.5847 11.9452C14.3951 13.7787 11.1663 17.1411 9.16702 21.2954C8.91039 21.8254 8.48666 23.3665 8.04502 23.5675C7.42434 23.8416 6.72607 23.2934 6.79769 22.6355C6.85737 22.0629 7.71081 20.2782 8.01518 19.6812C10.0921 15.6366 13.6968 12.2071 17.7969 10.3736C18.4713 10.069 20.011 9.41726 20.6854 9.34416Z" fill="#3C3638"/>
</g>
<defs>
<clipPath id="clip0_6_23">
<rect width="52" height="36" fill="white"/>
</clipPath>
</defs>
</svg>
