<svg width="56" height="56" viewBox="0 0 56 56" fill="none" xmlns="http://www.w3.org/2000/svg">
<g clip-path="url(#clip0_6_16)">
<circle cx="39" cy="26" r="10" fill="#FC7562"/>
<path d="M5.79635 40.5453C3.07654 38.8638 3.74614 36.1534 4.49203 33.615C5.05953 31.6854 5.82923 29.8188 6.61977 27.9679C5.50255 25.2367 7.38013 21.756 9.35784 19.8643C10.4086 18.8662 11.6215 18.2394 12.9263 17.6453C12.9958 15.2175 14.3441 13.137 16.5694 12.1599C19.461 10.8924 22.8651 10.1639 25.8007 8.93447C27.5379 8.49111 29.4101 8.8068 30.8847 9.85771C31.3337 10.1745 31.6685 10.6115 32.0973 10.9468C34.5942 10.207 37.9831 9.88903 40.4742 10.8174C42.0706 11.413 42.9013 12.8497 42.708 14.507C44.6671 15.4457 46.6041 16.5488 48.3881 17.7819C50.7437 19.4074 53.1885 21.1659 51.9185 24.3959C50.245 28.6574 45.5813 27.2356 42.1254 26.6409L41.7397 27.0318L35.1663 29.4536C34.6566 30.8012 33.9136 32.0088 32.6886 32.85C31.5922 33.6004 27.6201 34.9937 26.2968 35.0821C24.8959 35.1786 23.4844 34.824 22.3406 33.9936L15.7774 36.2284C15.6129 36.3471 15.1574 36.174 15.0668 36.2209C14.9695 36.2702 13.8891 37.6379 13.6583 37.883C11.8729 39.7991 9.83606 42.0745 6.89806 41.0732C6.6153 40.9772 6.04591 40.6987 5.78713 40.5409L5.79635 40.5453ZM39.8467 12.34C38.7082 11.9243 36.9155 11.833 35.704 11.9129C35.3229 11.9392 33.0552 12.2243 32.9757 12.4966L33.3273 13.7264L35.3198 27.6191L40.6143 25.5951L41.0783 13.839C40.9588 13.0592 40.5942 12.6135 39.8467 12.34ZM42.282 24.9773C43.551 25.2862 44.8576 25.5284 46.1619 25.6454C47.4662 25.7623 48.7595 25.9022 49.7426 24.8322C50.6003 23.8941 50.9495 22.2663 50.0649 21.2498C49.43 20.5165 48.3399 19.7515 47.5369 19.1917C45.9771 18.1056 44.3081 17.1647 42.6241 16.2788L42.2866 24.9795L42.282 24.9773ZM20.9695 32.6085C20.8611 32.5509 20.7931 32.4562 20.7341 32.3545C20.3448 31.6882 18.8765 29.4888 18.7702 28.9298C18.6179 28.1004 19.5735 27.6438 20.1435 28.2048C20.7136 28.7659 21.5035 30.5951 22.0665 31.3955C23.427 33.3232 25.202 33.8181 27.4112 33.2058C30.5273 32.345 33.9181 31.2659 33.6153 27.3556C33.2642 22.8126 32.0613 18.0364 31.582 13.4771C30.7879 11.1717 28.567 9.91565 26.1795 10.5215C23.2691 11.2607 20.2547 12.8081 17.3295 13.6136C15.7402 14.2689 14.7289 15.6697 14.5961 17.3899C14.4527 19.2743 15.7529 20.6537 16.5744 22.2158C16.6797 23.0961 15.8279 23.608 15.1466 22.9598C14.8443 22.6682 13.8683 20.9079 13.6151 20.4309C13.4447 20.1122 13.3001 19.7042 13.1636 19.3622C10.61 20.3739 8.65063 22.6414 8.02848 25.3237C7.88876 25.9229 7.74674 26.6451 8.11783 27.1955L15.5758 34.4609L20.9627 32.6109L20.9695 32.6085ZM7.82073 29.2941C7.00139 31.4417 6.02805 33.6623 5.59686 35.9225C5.33461 37.3097 5.34388 38.3076 6.69587 39.153C9.01622 40.6035 10.7788 38.5692 12.244 37.002C12.4747 36.757 13.8628 35.2206 13.8348 35.0661L7.81832 29.2873L7.82073 29.2941Z" fill="#3C3638"/>
<path d="M7.8205 29.2941L13.837 35.0728C13.8603 35.2252 12.4723 36.7616 12.2461 37.0088C10.781 38.576 9.0184 40.6103 6.69805 39.1598C5.34605 38.3144 5.33217 37.3142 5.59904 35.9293C6.03023 33.6691 7.00116 31.4417 7.8229 29.3009L7.8205 29.2941Z" fill="#F8F8F8"/>
<path d="M17.8646 24.7985C19.017 25.1024 18.4462 26.7312 17.4392 26.3841C16.4322 26.0371 16.9141 24.5463 17.8646 24.7985Z" fill="#3C3638"/>
</g>
<defs>
<clipPath id="clip0_6_16">
<rect width="41.0455" height="41.8348" fill="white" transform="translate(18.0777 0.0689087) rotate(25.6023)"/>
</clipPath>
</defs>
</svg>
