<svg width="41" height="41" viewBox="0 0 41 41" fill="none" xmlns="http://www.w3.org/2000/svg">
<g clip-path="url(#clip0_7_38)">
<circle cx="14" cy="14" r="10" fill="#FC7562"/>
<path d="M11.1383 8.8751C14.7081 5.36066 20.7395 9.30329 21.1237 13.6463C23.279 13.6018 25.3284 14.903 26.1749 16.866C26.7931 16.9049 29.043 17.9726 29.0597 16.8438C29.0709 16.0653 28.4694 14.7473 28.3859 13.8465C28.1965 11.789 29.0375 10.3154 30.7695 9.26436C33.309 7.72401 36.3163 8.50809 36.9512 11.5999C37.3522 13.5518 37.0737 15.9318 35.6258 17.3943C37.6975 17.3887 39.6411 18.4397 40.6436 20.2637C41.3341 21.5149 40.8496 23.9338 40.5489 25.3352C37.9537 37.3744 25.4287 43.558 13.8838 39.9991C5.58583 37.4355 -0.534653 29.022 0.0389681 20.247C0.194904 17.8503 1.6206 17.2219 3.62549 16.4156C2.93492 15.4258 2.24435 14.4192 1.62617 13.3849C0.317425 11.1773 -1.16397 8.70272 1.72085 6.93437C4.60566 5.16603 9.40626 5.90006 11.1327 8.8751H11.1383ZM10.793 19.1015C12.6531 15.0421 11.6005 8.19668 6.38779 7.44041C4.88969 7.22354 2.61748 7.53494 1.65959 8.83618C1.42011 9.1587 1.37556 9.36446 1.41455 9.76483C1.51479 10.8158 3.05744 13.1013 3.67562 14.0689C5.09575 16.2932 6.68295 18.5176 8.46507 20.4472L9.60118 20.4639C8.89947 16.6936 6.98925 13.1681 4.20468 10.5434C3.93737 10.2931 3.90395 9.88161 4.14342 9.59801C4.3996 9.29773 4.85627 9.26992 5.1403 9.5424C7.40694 11.7389 9.18906 14.4192 10.2249 17.4165C10.3864 17.8892 10.47 18.4397 10.6315 18.8846C10.6649 18.9736 10.6705 19.0903 10.7985 19.1015H10.793ZM12.7589 20.4639H15.9166C15.1425 17.7113 16.9079 14.4915 19.7537 13.9021C19.7036 10.649 14.4018 6.88989 11.9903 10.1152C13.1599 12.84 13.3659 15.8484 12.4192 18.6733C13.8003 17.0606 14.6412 14.9865 14.9754 12.8733C15.0367 12.5008 15.3708 12.2338 15.7439 12.2839C16.1338 12.3339 16.3955 12.6954 16.3343 13.0847C15.911 15.8428 14.6412 18.4064 12.7589 20.4639ZM39.0396 20.4639C39.0786 20.3137 38.9784 20.2915 38.9116 20.2081C38.4103 19.5519 37.4803 19.0181 36.6728 18.8679C35.9265 18.7289 34.718 18.9068 34.2725 18.1116C33.7378 17.1607 34.8015 16.3989 35.2136 15.6649C35.8318 14.5694 35.8931 12.5452 35.4698 11.3775C34.6233 9.03637 31.7051 9.7704 30.4242 11.3107C28.5028 13.6129 31.3264 16.2432 30.0678 18.0282C29.2602 19.1738 27.7064 18.6344 26.5815 18.4286C26.7875 19.0792 26.6372 19.8133 26.4979 20.475H30.8085C30.8642 20.4416 30.8976 20.3916 30.9198 20.3304C31.1426 19.7132 31.2429 18.5509 31.4044 17.8336C31.7496 16.3377 32.1562 14.8419 32.6574 13.3849C32.7688 13.0568 33.1308 12.8733 33.4649 12.9734C33.8102 13.0735 34.0163 13.4294 33.9216 13.7742C33.3146 15.9818 32.6017 18.1895 32.301 20.475H39.0452L39.0396 20.4639ZM20.5223 15.0921C19.2525 15.2478 17.9772 16.1876 17.5372 17.3943L18.0329 17.55C18.3726 17.6557 18.5675 18.0115 18.4728 18.3563C18.3781 18.7122 18.005 18.9235 17.6486 18.8234L17.1084 18.6733C17.0193 18.7956 17.1752 20.2081 17.32 20.3805C17.3868 20.4639 17.4704 20.475 17.5706 20.4694L25.0444 20.4249L25.295 19.3573L24.7103 19.5241C24.3761 19.6186 24.0308 19.4407 23.9139 19.1126C23.9139 19.1126 23.9139 19.1015 23.9083 19.0959C23.7802 18.7456 23.9751 18.3619 24.326 18.2451L25.1224 17.9893C24.7381 16.5101 23.4126 15.2867 21.8811 15.0921V15.6871C21.8811 16.0653 21.5748 16.3711 21.1961 16.3711C20.8174 16.3711 20.5111 16.0653 20.5111 15.6871V15.0921H20.5223ZM6.61055 20.4639L4.56668 17.778C4.29936 17.4999 3.72017 17.8447 3.39716 17.9782C2.28333 18.4453 1.23076 19.0792 1.40898 20.4639H6.61612H6.61055ZM39.6355 21.8263H1.40898C1.68743 29.2611 6.566 35.9508 13.5664 38.442C18.612 40.2382 25.0444 39.949 29.7949 37.43C35.5924 34.3604 39.3682 28.3992 39.6355 21.8207V21.8263Z" fill="#3C3638"/>
<path d="M27.4169 2.07975C28.2745 2.0019 29.9731 1.95741 30.8085 2.05195C31.2039 2.09643 31.4044 2.29662 31.4489 2.69144C31.7998 5.66649 30.4855 8.63597 27.6285 9.78706C26.3309 10.3098 24.0141 10.3654 22.6107 10.2375C22.232 10.2041 21.9591 10.0818 21.8923 9.67585C21.3242 6.05018 23.6577 2.43008 27.4169 2.07975ZM30.0789 3.41991H27.4781C27.1885 3.41991 26.459 3.68127 26.1582 3.80917C24.4708 4.5154 23.3347 6.19477 23.2567 8.02428L26.3866 5.37732C26.665 5.14377 27.0771 5.17157 27.3166 5.43849C27.5672 5.71653 27.545 6.14472 27.2665 6.38939L24.4485 8.87509H25.8575C28.1798 8.87509 30.0845 6.97884 30.0845 4.65442V3.41991H30.0789Z" fill="#3C3638"/>
<path d="M8.55418 0.0333851C11.3387 -0.40592 11.8288 3.7647 9.21134 4.09279C6.59384 4.42088 6.03136 0.433765 8.55418 0.0333851ZM8.72125 1.39023C7.93601 1.56261 8.10865 2.93614 9.11109 2.71927C9.89634 2.54688 9.7237 1.17336 8.72125 1.39023Z" fill="#3C3638"/>
<path d="M17.4258 2.07977C20.2104 1.64047 20.7005 5.81109 18.083 6.13918C15.4655 6.46727 14.903 2.47459 17.4258 2.07977ZM17.5985 3.43661C16.8132 3.609 16.9859 4.98252 17.9883 4.76565C18.7736 4.59327 18.6009 3.21974 17.5985 3.43661Z" fill="#3C3638"/>
<path d="M13.0039 35.3836V35.3947C12.8424 35.7561 12.4136 35.9174 12.0627 35.7339C9.33386 34.3103 7.05052 32.1527 5.31295 29.6281C5.09018 29.3 5.20156 28.8496 5.54128 28.655C5.85315 28.477 6.24856 28.5716 6.45462 28.8774C8.03069 31.2185 10.1637 33.2037 12.6753 34.4938C12.9984 34.6607 13.1487 35.0444 13.0039 35.378V35.3836Z" fill="#3C3638"/>
<path d="M15.744 36.1426C15.744 35.7664 15.4385 35.4614 15.0617 35.4614C14.685 35.4614 14.3795 35.7664 14.3795 36.1426C14.3795 36.5188 14.685 36.8238 15.0617 36.8238C15.4385 36.8238 15.744 36.5188 15.744 36.1426Z" fill="#3C3638"/>
</g>
<defs>
<clipPath id="clip0_7_38">
<rect width="41" height="41" fill="white"/>
</clipPath>
</defs>
</svg>
