<svg width="31" height="41" viewBox="0 0 31 41" fill="none" xmlns="http://www.w3.org/2000/svg">
<g clip-path="url(#clip0_7_29)">
<ellipse cx="10.3333" cy="30.5116" rx="9.39394" ry="9.53488" fill="#FC7562"/>
<path d="M31 1.34351C30.983 1.0105 30.7451 0.608598 30.3712 0.528217L24.8646 0H24.8476H24.8306C24.0998 0.120571 24.0998 0.763618 24.0998 1.28035C24.0998 1.37222 24.0998 1.45834 24.0998 1.54446L24.0375 1.60762C23.6636 1.67077 22.8478 1.63633 22.0546 1.60762C20.6157 1.54446 19.6526 1.5215 19.324 1.73393C18.9105 1.99804 18.9954 2.80759 19.0747 3.51953C19.1031 3.78938 19.1314 4.04775 19.1257 4.23148H17.3242C17.3072 4.00756 17.3412 3.72049 17.3808 3.41619C17.4545 2.84778 17.5281 2.25641 17.2449 1.89469C17.1089 1.72245 16.905 1.62484 16.6387 1.60188C15.7323 1.5215 14.7579 1.56169 13.8118 1.59613C12.9393 1.63058 12.0386 1.66503 11.1944 1.60188C11.1208 1.58465 11.0132 1.59039 10.8715 1.688C10.7356 1.7856 10.5429 2.00378 10.5429 2.15306V4.22574H7.05885C7.04185 4.07646 7.03618 3.88699 7.03052 3.67455C6.99653 2.75017 6.95687 1.59613 6.27705 1.44111H6.25439L0.719481 1.99804C0.277595 2.07842 0.0226608 2.35975 0 2.81907L1.87518 15.6226C1.42197 16.7307 1.67124 17.9881 1.91484 19.1995C1.99982 19.6359 2.0848 20.055 2.13578 20.4627C2.60033 24.1774 2.84393 27.9553 3.03655 31.205C3.07054 31.7619 3.07621 32.3533 3.07621 32.9217C3.0932 35.0001 3.10453 37.1474 4.45852 38.8297C6.38469 41.2239 9.06999 41.0459 11.6703 40.8794C12.2652 40.8392 12.8827 40.799 13.4832 40.7876C14.8428 40.7646 16.2308 40.8278 17.5791 40.8909C18.7462 40.9426 19.9415 40.9943 21.1255 40.9943C21.4995 40.9943 21.8734 40.9943 22.2416 40.977C25.4764 40.8679 27.6292 38.5139 27.8615 34.8222C27.9521 33.3983 28.0258 31.9514 28.0938 30.5505C28.258 27.2434 28.4337 23.8272 28.8529 20.4627C28.9039 20.0608 28.9832 19.6531 29.0682 19.2168C29.2891 18.0857 29.5157 16.9202 29.2098 15.8924L30.9943 1.33777L31 1.34351ZM3.52942 16.3058C4.08461 16.3288 4.67946 16.3058 5.25731 16.2771C5.98246 16.2484 6.73593 16.214 7.41009 16.2771C8.36184 16.369 8.41849 17.0293 8.48648 17.8618C8.5148 18.1776 8.53746 18.4991 8.62244 18.8034C8.93403 19.9172 9.92544 20.7038 11.1548 20.8072C12.7524 20.945 14.4916 20.8818 16.1742 20.8186C17.4998 20.767 18.8651 20.7153 20.1738 20.767C21.2502 20.566 22.1 19.8139 22.3776 18.8091C22.4625 18.5106 22.4909 18.1833 22.5135 17.8675C22.5815 17.0293 22.6382 16.3747 23.5899 16.2829C24.4793 16.1967 26.3205 16.1967 27.2326 16.2829C27.7142 16.3288 27.8785 16.5125 27.8615 16.9948C27.8388 17.6092 27.6802 18.413 27.5272 19.1881C27.4196 19.7392 27.3063 20.3077 27.2496 20.7957C26.9947 22.8684 26.7851 25.119 26.6151 27.6682C26.5415 28.7764 26.5132 29.9476 26.4848 31.0844C26.4452 32.6346 26.4112 34.2308 26.2469 35.7006C26.0883 37.1475 24.9949 38.5713 23.6409 39.0938C22.6835 39.4613 21.4881 39.3809 20.3381 39.3063C19.9132 39.2775 19.511 39.2488 19.1314 39.2488C16.752 39.2259 14.3443 39.2259 11.9819 39.2488C11.591 39.2488 11.1831 39.2775 10.7526 39.3063C9.55153 39.3866 8.31652 39.467 7.32511 39.0709C4.6398 37.9857 4.63414 35.1609 4.62847 32.4394C4.62847 31.8136 4.62847 31.2222 4.59448 30.6596C4.33955 26.4855 3.99963 21.6339 3.15552 16.9144C3.14419 16.6274 3.29715 16.3977 3.55208 16.3173L3.52942 16.3058ZM10.8092 19.1249C10.1351 18.901 10.0671 18.1374 10.0048 17.3967C9.97643 17.0867 9.95376 16.7996 9.88578 16.547C9.60252 15.4848 8.67343 14.7556 7.6027 14.7269L7.25713 5.78742H10.6336L11.1661 19.1766C11.0981 19.1881 10.9338 19.1708 10.8092 19.1249ZM23.3067 14.7327C22.2812 14.7958 21.3918 15.525 21.1142 16.547C21.0349 16.8398 21.0122 17.1498 20.9896 17.4484C20.9499 17.9479 20.9159 18.4302 20.6383 18.7976C20.6383 18.7976 20.6383 18.7976 20.6383 18.7919C20.6043 18.3096 20.6157 17.7297 20.6327 17.213V17.0809C20.6723 15.6456 20.7516 14.17 20.8253 12.7461C20.9669 10.0706 21.1199 7.30318 20.9839 4.59894L20.9726 4.54726C20.9329 4.46114 20.8423 4.39798 20.7063 4.30612C20.6837 4.28889 20.661 4.27741 20.6383 4.26593V3.15782H24.0035L23.3067 14.7269V14.7327ZM19.0238 19.2512H16.3498L15.8229 5.79317C16.5084 5.80465 17.1996 5.79891 17.8737 5.79317C18.4289 5.79317 18.9841 5.78168 19.545 5.79317L19.0181 19.257L19.0238 19.2512ZM15.8003 4.24296C15.7153 4.24296 15.619 4.24296 15.5227 4.23148C15.1148 4.21425 14.6049 4.18555 14.3556 4.57597C14.1573 4.88027 14.2083 5.11567 14.248 5.32236C14.265 5.41423 14.2876 5.50035 14.2876 5.59795C14.2876 7.61322 14.3896 9.65145 14.4916 11.6265C14.5482 12.7346 14.6049 13.8829 14.6446 15.0083C14.6842 16.2025 14.7012 17.4197 14.7182 18.5967L14.7295 19.2512H12.6901L12.0782 3.16356H15.8059V4.24296H15.8003ZM5.36495 3.07744C5.45559 3.39322 5.59722 4.60468 5.62555 4.97787C5.7955 7.07926 5.85216 9.30122 5.90314 11.4428C5.9258 12.3729 5.94846 13.2916 5.98246 14.1987C5.98246 14.3135 6.01078 14.4226 6.03344 14.526C6.05044 14.5949 6.06177 14.6638 6.0731 14.7269H3.30848L1.64857 3.51379L5.37061 3.08318L5.36495 3.07744ZM24.9326 14.7269L25.6747 1.63633L29.2381 1.98081L29.3458 2.05545L27.6462 14.7269H24.9326Z" fill="#3C3638"/>
<path d="M10.3503 30.5792C11.1094 30.6481 11.8969 30.671 12.6957 30.671C13.6984 30.671 14.7182 30.6309 15.7209 30.5964C17.3582 30.5333 19.0521 30.4701 20.6553 30.5734C21.5561 30.4471 22.1736 29.7926 22.2529 28.8625C22.3152 28.1505 22.3435 26.2271 22.2246 25.5841C22.049 24.608 21.0745 24.1946 20.2927 24.1315C18.5649 23.9937 16.7067 24.0569 14.9165 24.12C13.4152 24.1717 11.8629 24.2234 10.4013 24.1602H10.39H10.3786C9.57418 24.2578 9.05865 24.5966 8.79238 25.1937C8.48646 25.8826 8.46946 28.5582 8.70174 29.3161C8.91701 30.0108 9.56285 30.5045 10.356 30.5792H10.3503ZM10.1974 25.986C10.22 25.8712 10.2597 25.8252 10.322 25.8023H20.5873C20.678 25.8539 20.7063 26.0779 20.7176 26.1525C20.7573 26.52 20.7743 28.5582 20.7063 28.7936C20.6723 28.9142 20.44 29.0232 20.2814 29.029L10.3503 28.9888C10.3163 28.9716 10.237 28.9429 10.2313 28.9371C10.1747 28.7362 10.1464 26.2846 10.1974 25.9917V25.986Z" fill="#3C3638"/>
</g>
<defs>
<clipPath id="clip0_7_29">
<rect width="31" height="41" fill="white"/>
</clipPath>
</defs>
</svg>
